<?xml version="1.0" encoding="UTF-8" standalone="no"?>
<svg
   xmlns:dc="http://purl.org/dc/elements/1.1/"
   xmlns:cc="http://creativecommons.org/ns#"
   xmlns:rdf="http://www.w3.org/1999/02/22-rdf-syntax-ns#"
   xmlns:svg="http://www.w3.org/2000/svg"
   xmlns="http://www.w3.org/2000/svg"
   xmlns:sodipodi="http://sodipodi.sourceforge.net/DTD/sodipodi-0.dtd"
   xmlns:inkscape="http://www.inkscape.org/namespaces/inkscape"
   sodipodi:docname="Extractor.svg"
   inkscape:version="1.0 (1.0+r73+1)"
   width="32"
   height="64"
   viewBox="0 0 32 64"
   version="1.1"
   id="SVGRoot">
  <defs
     id="defs10" />
  <sodipodi:namedview
     scale-x="1"
     inkscape:window-maximized="1"
     inkscape:window-y="0"
     inkscape:window-x="0"
     inkscape:window-height="1044"
     inkscape:window-width="1920"
     showgrid="true"
     inkscape:document-rotation="0"
     inkscape:current-layer="layer1"
     inkscape:document-units="px"
     inkscape:cy="45.122397"
     inkscape:cx="-17.412763"
     inkscape:zoom="8.0963779"
     inkscape:pageshadow="2"
     inkscape:pageopacity="0.0"
     borderopacity="1.0"
     bordercolor="#666666"
     pagecolor="#ffffff"
     id="base">
    <inkscape:grid
       empspacing="4"
       spacingy="1"
       spacingx="1"
       type="xygrid"
       id="grid19" />
  </sodipodi:namedview>
  <metadata
     id="metadata13">
    <rdf:RDF>
      <cc:Work
         rdf:about="">
        <dc:format>image/svg+xml</dc:format>
        <dc:type
           rdf:resource="http://purl.org/dc/dcmitype/StillImage" />
        <dc:title></dc:title>
      </cc:Work>
    </rdf:RDF>
  </metadata>
  <g
     id="layer1"
     inkscape:groupmode="layer"
     inkscape:label="Layer 1">
    <g
       transform="matrix(0.5,0,0,0.5,8,40)"
       id="g846">
      <rect
         style="fill:#808080;stroke-width:0"
         id="rect833"
         width="24"
         height="24"
         x="4"
         y="4" />
      <path
         id="rect833-3"
         style="fill:#cccccc;stroke-width:0"
         d="M 0,0 4,4 V 28 L 0,32 Z"
         sodipodi:nodetypes="ccccc" />
      <path
         sodipodi:nodetypes="ccccc"
         d="M 32,0 28,4 H 4 L 0,0 Z"
         style="fill:#ececec;stroke-width:0"
         id="path864" />
      <path
         id="path866"
         style="fill:#666666;stroke-width:0"
         d="M 32,32 28,28 V 4 l 4,-4 z"
         sodipodi:nodetypes="ccccc" />
      <path
         sodipodi:nodetypes="ccccc"
         d="m 0,32 4,-4 h 24 l 4,4 z"
         style="fill:#333333;stroke-width:0"
         id="path868" />
    </g>
    <rect
       y="40"
       x="8"
       height="16"
       width="16"
       id="rect1063"
       style="fill:#000000;fill-opacity:0.44182664;stroke:none;stroke-width:0" />
    <path
       d="M 15.951172 14 A 2 2 0 0 0 14 16 A 2 2 0 0 0 14 16.048828 L 14 48 A 2 2 0 0 0 16 50 A 2 2 0 0 0 18 48 A 2 2 0 0 0 18 47.951172 L 18 16 A 2 2 0 0 0 16 14 A 2 2 0 0 0 15.951172 14 z "
       style="fill:#271a00;fill-opacity:1;stroke-width:0"
       id="rect851" />
  </g>
</svg>
