<?xml version="1.0" encoding="UTF-8" standalone="no"?>
<svg
   xmlns:dc="http://purl.org/dc/elements/1.1/"
   xmlns:cc="http://creativecommons.org/ns#"
   xmlns:rdf="http://www.w3.org/1999/02/22-rdf-syntax-ns#"
   xmlns:svg="http://www.w3.org/2000/svg"
   xmlns="http://www.w3.org/2000/svg"
   xmlns:sodipodi="http://sodipodi.sourceforge.net/DTD/sodipodi-0.dtd"
   xmlns:inkscape="http://www.inkscape.org/namespaces/inkscape"
   id="SVGRoot"
   version="1.1"
   viewBox="0 0 256 256"
   height="256"
   width="256"
   inkscape:version="1.0 (1.0+r73+1)"
   sodipodi:docname="BG.svg">
  <defs
     id="defs10" />
  <sodipodi:namedview
     id="base"
     pagecolor="#ffffff"
     bordercolor="#666666"
     borderopacity="1.0"
     inkscape:pageopacity="0.0"
     inkscape:pageshadow="2"
     inkscape:zoom="1.7965375"
     inkscape:cx="316.54551"
     inkscape:cy="143.25475"
     inkscape:document-units="px"
     inkscape:current-layer="layer1"
     inkscape:document-rotation="0"
     showgrid="true"
     inkscape:window-width="1920"
     inkscape:window-height="1044"
     inkscape:window-x="0"
     inkscape:window-y="0"
     inkscape:window-maximized="1"
     scale-x="1">
    <inkscape:grid
       id="grid19"
       type="xygrid"
       spacingx="1"
       spacingy="1"
       empspacing="4" />
  </sodipodi:namedview>
  <metadata
     id="metadata13">
    <rdf:RDF>
      <cc:Work
         rdf:about="">
        <dc:format>image/svg+xml</dc:format>
        <dc:type
           rdf:resource="http://purl.org/dc/dcmitype/StillImage" />
        <dc:title></dc:title>
      </cc:Work>
    </rdf:RDF>
  </metadata>
  <g
     inkscape:label="Layer 1"
     inkscape:groupmode="layer"
     id="layer1">
    <rect
       style="fill:#1a1a1a;stroke-width:8.00001"
       id="rect9"
       width="256"
       height="256"
       x="0"
       y="0" />
    <path
       sodipodi:nodetypes="aaaaaaaaaccaaaaaaaaacca"
       d="m 0,32 c 10.994944,0 21.005056,8 32,8 10.994944,0 21.005056,-8 32,-8 10.99494,0 21.00505,8 32,8 10.99495,0 21.00505,-8 32,-8 10.99495,0 21.00505,8 32,8 10.99495,0 21.00505,-8 32,-8 10.99495,0 21.00505,8 32,8 10.99495,0 21.00505,-8 32,-8 10.99495,0 32,8 32,8 v 16 c 0,0 -21.00505,-8 -32,-8 -10.99495,0 -21.00505,8 -32,8 -10.99495,0 -21.00505,-8 -32,-8 -10.99495,0 -21.00505,8 -32,8 -10.99495,0 -21.00505,-8 -32,-8 -10.99495,0 -21.00505,8 -32,8 C 85.005052,56 74.994948,48 64,48 53.005052,48 42.994948,56 32,56 21.005052,56 10.994948,48 0,48 c -10.994948,0 -32,8 -32,8 V 40 c 0,0 21.005056,-8 32,-8 z"
       style="fill:#0b2228;stroke-width:8.00001"
       id="rect103-2-1-2" />
    <path
       id="path14"
       style="fill:#0b2228;stroke-width:8.00001"
       d="m 0,96 c 10.994944,0 21.005056,8 32,8 10.994944,0 21.005056,-8 32,-8 10.99494,0 21.00505,8 32,8 10.99495,0 21.00505,-8 32,-8 10.99495,0 21.00505,8 32,8 10.99495,0 21.00505,-8 32,-8 10.99495,0 21.00505,8 32,8 10.99495,0 21.00505,-8 32,-8 10.99495,0 32,8 32,8 v 16 c 0,0 -21.00505,-8 -32,-8 -10.99495,0 -21.00505,8 -32,8 -10.99495,0 -21.00505,-8 -32,-8 -10.99495,0 -21.00505,8 -32,8 -10.99495,0 -21.00505,-8 -32,-8 -10.99495,0 -21.00505,8 -32,8 -10.994948,0 -21.005052,-8 -32,-8 -10.994948,0 -21.005052,8 -32,8 -10.994948,0 -21.005052,-8 -32,-8 -10.994948,0 -32,8 -32,8 v -16 c 0,0 21.005056,-8 32,-8 z"
       sodipodi:nodetypes="aaaaaaaaaccaaaaaaaaacca" />
    <path
       sodipodi:nodetypes="aaaaaaaaaccaaaaaaaaacca"
       d="m 0,160 c 10.994944,0 21.005056,8 32,8 10.994944,0 21.005056,-8 32,-8 10.99494,0 21.00505,8 32,8 10.99495,0 21.00505,-8 32,-8 10.99495,0 21.00505,8 32,8 10.99495,0 21.00505,-8 32,-8 10.99495,0 21.00505,8 32,8 10.99495,0 21.00505,-8 32,-8 10.99495,0 32,8 32,8 v 16 c 0,0 -21.00505,-8 -32,-8 -10.99495,0 -21.00505,8 -32,8 -10.99495,0 -21.00505,-8 -32,-8 -10.99495,0 -21.00505,8 -32,8 -10.99495,0 -21.00505,-8 -32,-8 -10.99495,0 -21.00505,8 -32,8 -10.994948,0 -21.005052,-8 -32,-8 -10.994948,0 -21.005052,8 -32,8 -10.994948,0 -21.005052,-8 -32,-8 -10.994948,0 -32,8 -32,8 v -16 c 0,0 21.005056,-8 32,-8 z"
       style="fill:#0b2228;stroke-width:8.00001"
       id="path16" />
    <path
       sodipodi:nodetypes="aaaaaaaaaccaaaaaaaaacca"
       d="m 0,224 c 10.994944,0 21.005056,8 32,8 10.994944,0 21.005056,-8 32,-8 10.99494,0 21.00505,8 32,8 10.99495,0 21.00505,-8 32,-8 10.99495,0 21.00505,8 32,8 10.99495,0 21.00505,-8 32,-8 10.99495,0 21.00505,8 32,8 10.99495,0 21.00505,-8 32,-8 10.99495,0 32,8 32,8 v 16 c 0,0 -21.00505,-8 -32,-8 -10.99495,0 -21.00505,8 -32,8 -10.99495,0 -21.00505,-8 -32,-8 -10.99495,0 -21.00505,8 -32,8 -10.99495,0 -21.00505,-8 -32,-8 -10.99495,0 -21.00505,8 -32,8 -10.994948,0 -21.005052,-8 -32,-8 -10.994948,0 -21.005052,8 -32,8 -10.994948,0 -21.005052,-8 -32,-8 -10.994948,0 -32,8 -32,8 v -16 c 0,0 21.005056,-8 32,-8 z"
       style="fill:#0b2228;stroke-width:8.00001"
       id="path20" />
  </g>
</svg>
