<?xml version="1.0" encoding="UTF-8" standalone="no"?>
<svg
   xmlns:dc="http://purl.org/dc/elements/1.1/"
   xmlns:cc="http://creativecommons.org/ns#"
   xmlns:rdf="http://www.w3.org/1999/02/22-rdf-syntax-ns#"
   xmlns:svg="http://www.w3.org/2000/svg"
   xmlns="http://www.w3.org/2000/svg"
   xmlns:sodipodi="http://sodipodi.sourceforge.net/DTD/sodipodi-0.dtd"
   xmlns:inkscape="http://www.inkscape.org/namespaces/inkscape"
   id="SVGRoot"
   version="1.1"
   viewBox="0 0 32 32"
   height="32"
   width="32"
   inkscape:version="1.0 (1.0+r73+1)"
   sodipodi:docname="Machine.svg"
   overflow="visible">
  <defs
     id="defs10" />
  <sodipodi:namedview
     id="base"
     pagecolor="#ffffff"
     bordercolor="#666666"
     borderopacity="1.0"
     inkscape:pageopacity="0.0"
     inkscape:pageshadow="2"
     inkscape:zoom="15.225075"
     inkscape:cx="16.513478"
     inkscape:cy="15.244154"
     inkscape:document-units="px"
     inkscape:current-layer="layer1"
     inkscape:document-rotation="0"
     showgrid="true"
     inkscape:window-width="1920"
     inkscape:window-height="1044"
     inkscape:window-x="0"
     inkscape:window-y="0"
     inkscape:window-maximized="1"
     scale-x="1">
    <inkscape:grid
       id="grid19"
       type="xygrid"
       spacingx="1"
       spacingy="1"
       empspacing="4" />
  </sodipodi:namedview>
  <metadata
     id="metadata13">
    <rdf:RDF>
      <cc:Work
         rdf:about="">
        <dc:format>image/svg+xml</dc:format>
        <dc:type
           rdf:resource="http://purl.org/dc/dcmitype/StillImage" />
        <dc:title />
      </cc:Work>
    </rdf:RDF>
  </metadata>
  <g
     inkscape:label="Layer 1"
     inkscape:groupmode="layer"
     id="layer1">
    <rect
       y="4"
       x="4"
       height="24"
       width="24"
       id="rect833"
       style="fill:#808080;stroke-width:0" />
    <path
       id="path848"
       style="fill:#1f1f1f;stroke-width:0"
       d="M 14 8 L 14 10.34375 C 13.800556 10.4141 13.604971 10.494938 13.414062 10.585938 L 12 9 L 9 12 L 10.585938 13.414062 C 10.494938 13.604971 10.414096 13.800556 10.34375 14 L 8 14 L 8 18 L 10.34375 18 C 10.4141 18.199444 10.494938 18.395029 10.585938 18.585938 L 9 20 L 12 23 L 13.414062 21.414062 C 13.604971 21.505062 13.800556 21.585904 14 21.65625 L 14 24 L 18 24 L 18 21.65625 C 18.199444 21.5859 18.395029 21.505062 18.585938 21.414062 L 20 23 L 23 20 L 21.414062 18.585938 C 21.505062 18.395029 21.585904 18.199444 21.65625 18 L 24 18 L 24 14 L 21.65625 14 C 21.5859 13.800556 21.505062 13.604971 21.414062 13.414062 L 23 12 L 20 9 L 18.585938 10.585938 C 18.395029 10.494938 18.199444 10.414096 18 10.34375 L 18 8 L 14 8 z M 15.951172 14 A 2 2 0 0 1 16 14 A 2 2 0 0 1 18 16 A 2 2 0 0 1 16 18 A 2 2 0 0 1 14 16 A 2 2 0 0 1 15.951172 14 z " />
  </g>
</svg>
