<?xml version="1.0" encoding="UTF-8" standalone="no"?>
<svg
   xmlns:dc="http://purl.org/dc/elements/1.1/"
   xmlns:cc="http://creativecommons.org/ns#"
   xmlns:rdf="http://www.w3.org/1999/02/22-rdf-syntax-ns#"
   xmlns:svg="http://www.w3.org/2000/svg"
   xmlns="http://www.w3.org/2000/svg"
   xmlns:sodipodi="http://sodipodi.sourceforge.net/DTD/sodipodi-0.dtd"
   xmlns:inkscape="http://www.inkscape.org/namespaces/inkscape"
   id="SVGRoot"
   version="1.1"
   viewBox="0 0 32 32"
   height="32"
   width="32"
   inkscape:version="1.0 (1.0+r73+1)"
   sodipodi:docname="ConveyorR.svg">
  <defs
     id="defs10" />
  <sodipodi:namedview
     id="base"
     pagecolor="#ffffff"
     bordercolor="#666666"
     borderopacity="1.0"
     inkscape:pageopacity="0.0"
     inkscape:pageshadow="2"
     inkscape:zoom="15.163627"
     inkscape:cx="6.705318"
     inkscape:cy="11.096062"
     inkscape:document-units="px"
     inkscape:current-layer="layer1"
     inkscape:document-rotation="0"
     showgrid="true"
     inkscape:window-width="1920"
     inkscape:window-height="1044"
     inkscape:window-x="0"
     inkscape:window-y="0"
     inkscape:window-maximized="1"
     scale-x="1">
    <inkscape:grid
       id="grid19"
       type="xygrid"
       spacingx="1"
       spacingy="1"
       empspacing="4" />
  </sodipodi:namedview>
  <metadata
     id="metadata13">
    <rdf:RDF>
      <cc:Work
         rdf:about="">
        <dc:format>image/svg+xml</dc:format>
        <dc:type
           rdf:resource="http://purl.org/dc/dcmitype/StillImage" />
        <dc:title />
      </cc:Work>
    </rdf:RDF>
  </metadata>
  <g
     inkscape:label="Layer 1"
     inkscape:groupmode="layer"
     id="layer1">
    <rect
       style="fill:#333333;stroke-width:0.707107"
       id="rect9"
       width="2"
       height="16"
       x="4"
       y="16" />
    <rect
       style="fill:#333333;stroke-width:0.433013"
       id="rect11"
       width="2"
       height="6"
       x="26"
       y="26" />
    <path
       d="M 15.980469 6 A 10 10 0 0 0 6 16 A 10 10 0 0 0 6 16.019531 L 6 32 L 26 32 L 26 26 L 32 26 L 32 6 L 16 6 A 10 10 0 0 0 15.980469 6 z "
       style="fill:#666666;stroke-width:0.72547"
       id="rect13" />
    <path
       d="M 15.980469,4 A 12,12 0 0 0 4,16 H 6 A 10,10 0 0 1 15.980469,6 Z"
       style="fill:#333333"
       id="path15-3" />
    <path
       style="fill:#800000;fill-opacity:1;stroke:none;stroke-width:2px;stroke-linecap:butt;stroke-linejoin:miter;stroke-opacity:1"
       d="M 10.686292,14 H 22 v 11.313708 z"
       id="path17" />
    <rect
       transform="matrix(0,1,1,0,0,0)"
       y="16"
       x="4"
       height="16"
       width="2"
       id="rect904"
       style="fill:#333333;stroke-width:0.707107" />
    <rect
       transform="matrix(0,1,1,0,0,0)"
       y="26"
       x="26"
       height="6"
       width="2"
       id="rect906"
       style="fill:#333333;stroke-width:0.433013" />
  </g>
</svg>
